<svg width="1180" height="309" viewBox="0 0 1180 309" fill="none" xmlns="http://www.w3.org/2000/svg">
<path fill-rule="evenodd" clip-rule="evenodd" d="M102.56 1.034C95.5199 2.219 85.2649 5.801 76.8029 10.032C51.1729 22.845 28.4139 49.287 9.26489 88.5C0.656891 106.128 -2.33211 113.643 1.90789 107C20.1369 78.436 29.5149 66.343 45.0059 51.425C61.3279 35.706 77.0699 26.152 93.6199 21.919C100.351 20.197 104.914 20 137.963 20H174.803V22.989C174.803 24.633 173.914 28.319 172.827 31.18C171.74 34.04 171.056 36.586 171.307 36.837C172.309 37.84 184.937 30.685 189.66 26.438C196.112 20.638 200.803 11.545 200.803 4.84V0L154.053 0.118C128.34 0.182 105.169 0.595 102.56 1.034ZM720.803 154.5C720.803 256.833 721.141 309 721.803 309C722.465 309 722.803 256.833 722.803 154.5C722.803 52.167 722.465 0 721.803 0C721.141 0 720.803 52.167 720.803 154.5ZM1043.11 19.851C1035.93 25.528 1025.8 35.073 1025.8 36.167C1025.8 36.69 1026.17 36.891 1026.62 36.614C1027.07 36.337 1034.04 35.617 1042.12 35.014C1066.61 33.185 1094.1 36.199 1118.77 43.417C1123.43 44.78 1127.39 45.742 1127.58 45.555C1128.22 44.915 1116.01 37.979 1104.66 32.54C1091.39 26.179 1078.65 21.769 1063.89 18.419C1049.84 15.233 1048.87 15.301 1043.11 19.851ZM164.252 38.958C160.933 40.302 144.077 42.812 133.605 43.522L123.908 44.179L122.829 49.339C121.008 58.048 123.115 57.427 93.0899 58.104C64.7709 58.743 62.4369 59.092 50.1979 64.504C37.0619 70.314 21.9779 83.724 11.9019 98.552L6.50189 106.5L11.4019 101.886C19.4489 94.311 26.7649 89.042 34.9459 84.928C47.2809 78.726 54.9439 77.002 74.8029 75.96C100.373 74.62 110.637 71.206 117.801 61.661C120.597 57.936 121.902 56.997 124.301 56.987C131.251 56.956 146.584 52.926 154.303 49.101C164.902 43.848 173.289 35.297 164.252 38.958ZM1052.8 45.037C1041.68 45.825 1029.15 47.705 1017.86 50.28C1012.69 51.459 1012.18 51.868 1007.64 58.51C1005.02 62.355 1000.75 69.748 998.172 74.94L993.476 84.381L998.39 88.84C1005.84 95.606 1016.41 104 1017.46 104C1017.98 104 1022.88 101.045 1028.35 97.433C1040.61 89.343 1060.83 79.364 1074.8 74.515C1096.4 67.018 1114.81 63.522 1139.8 62.174L1152.3 61.5L1142.8 57.853C1116.66 47.815 1082.41 42.939 1052.8 45.037ZM1000.3 55.249C993.314 57.521 976.803 64.329 976.803 64.939C976.803 65.917 988.89 80 989.73 80C990.124 80 991.416 77.862 992.602 75.25C993.787 72.638 996.792 66.937 999.278 62.582C1001.76 58.227 1003.69 54.576 1003.55 54.469C1003.41 54.362 1001.95 54.713 1000.3 55.249ZM990.682 92.75C988.135 99.283 984.916 114.318 983.901 124.417C983.298 130.422 982.99 135.52 983.217 135.747C983.444 135.974 987.062 132.567 991.257 128.176C995.452 123.785 1002.02 117.579 1005.86 114.385C1009.69 111.191 1012.71 108.258 1012.57 107.867C1012.42 107.476 1007.68 103.296 1002.03 98.578L991.753 90L990.682 92.75ZM330.801 97.003C324.759 105.9 324.755 106.008 330.446 105.955C334.841 105.914 335.82 105.439 340.731 100.966C343.716 98.247 345.966 95.83 345.731 95.595C345.496 95.36 342.95 94.24 340.075 93.107L334.846 91.046L330.801 97.003ZM55.8029 125V154H62.7709H69.7399L70.0209 142.25L70.3029 130.5L82.5529 130.219L94.8029 129.938V124.469V119H82.3029H69.8029V113.5V108H85.3029H100.803V102V96H78.3029H55.8029V125ZM421.803 101.046V106.091L428.553 105.796L435.303 105.5L435.608 100.75L435.913 96H428.858H421.803V101.046ZM513.803 124.943V154.1L519.553 153.8L525.303 153.5L525.59 144.896L525.877 136.292L534.335 135.695C547.821 134.743 555.254 130.624 558.414 122.349C561.849 113.353 558.239 104.218 549.303 99.294C544.578 96.69 543.463 96.518 529.053 96.163L513.803 95.786V124.943ZM563.803 125V154H585.803H607.803V149.525V145.05L591.553 144.775L575.303 144.5V137V129.5L588.053 129.22L600.803 128.94V124.47V120H587.803H574.803V112.5V105H590.803H606.803V100.5V96H585.303H563.803V125ZM541.836 105.517C547.358 108.373 549.466 116.375 546.167 121.96C543.575 126.348 539.81 128 532.399 128H525.803V116V104H532.353C536.251 104 540.09 104.614 541.836 105.517ZM199.7 110.949C189.901 112.821 182.305 120.967 181.133 130.861C180.631 135.099 180.977 136.835 183.246 141.472C186.372 147.862 190.698 151.552 197.508 153.637C210 157.462 224.126 149.411 226.946 136.86C230.275 122.042 215.448 107.942 199.7 110.949ZM371.361 111.469C366.253 113.319 362.846 115.886 360.053 119.99C357.961 123.064 357.803 124.373 357.803 138.648V154H364.803H371.803V139.691C371.803 129.443 372.176 124.872 373.118 123.583C373.842 122.594 376.654 121.221 379.368 120.532L384.303 119.279V114.889V110.5L379.803 110.27C377.328 110.144 373.529 110.683 371.361 111.469ZM455.516 111.4C429.985 118.385 435.249 154.36 461.803 154.36C475.154 154.36 484.84 145.054 484.781 132.282C484.715 117.808 470.132 107.402 455.516 111.4ZM110.818 113.71C102.946 117.841 99.2909 123.958 99.3369 132.922C99.3909 143.445 104.831 150.789 114.696 153.657C119.755 155.128 129.387 154.993 131.938 153.416C132.414 153.122 132.803 150.944 132.803 148.575V144.267L125.835 144.766L118.867 145.264L115.085 141.382L111.303 137.5L128.19 137.225L145.076 136.95L144.54 131.041C143.876 123.715 140.742 117.923 135.462 114.264C132.132 111.956 130.223 111.445 123.889 111.166C117.111 110.867 115.719 111.138 110.818 113.71ZM161.296 113.351C144.027 121.393 143.219 142.487 159.837 151.448C164.355 153.884 166.517 154.404 172.303 154.448L179.303 154.5L179.608 149.75L179.913 145H175.808C167.782 145 161.803 139.701 161.803 132.588C161.803 130.309 162.538 127.396 163.436 126.114C165.476 123.201 172.259 120.051 176.553 120.022C179.735 120 179.803 119.906 179.803 115.5V111L173.053 111.01C168.096 111.017 164.973 111.639 161.296 113.351ZM242.262 112.88C233.292 116.954 230.538 124.229 231.017 142.58L231.303 153.5L237.938 153.793L244.574 154.086L244.962 139.936C245.348 125.908 245.375 125.765 248.133 123.393C251.49 120.505 254.769 120.343 257.942 122.908C260.176 124.714 260.33 125.59 260.803 139.158L261.303 153.5L268.053 153.796L274.803 154.091L274.809 142.796C274.812 136.583 275.279 129.826 275.847 127.779C277.612 121.426 283.283 119.142 287.942 122.908C290.176 124.714 290.33 125.59 290.803 139.158L291.303 153.5L298.053 153.796L304.803 154.091V140.014C304.803 121.525 303.004 116.876 294.303 112.881C288.818 110.362 277.733 110.395 272.115 112.946C267.993 114.817 267.865 114.816 264.153 112.924C259.098 110.346 247.888 110.324 242.262 112.88ZM321.303 112.814C315.209 115.668 310.211 121.818 308.777 128.227C305.227 144.091 318.959 157.29 336.006 154.399L341.303 153.5L341.602 148.88L341.902 144.26L335.07 144.749C328.745 145.201 328 145.037 325.021 142.53C319.004 137.467 320.082 137 337.803 137H353.803L353.793 132.25C353.779 125.312 349.973 117.802 344.702 114.314C339.108 110.612 327.583 109.873 321.303 112.814ZM397.803 113.081C385.613 118.599 380.575 130.7 385.893 141.685C389.945 150.057 400.102 155.472 410.504 154.807L415.303 154.5L415.608 149.75L415.913 145H411.506C405.969 145 400.969 141.832 398.473 136.743C396.931 133.597 396.826 132.46 397.805 129.495C399.409 124.634 404.419 121.07 410.692 120.327L415.803 119.721V115.361V111L409.053 111.022C404.44 111.037 400.878 111.689 397.803 113.081ZM421.803 132.5V154.091L428.553 153.796L435.303 153.5V132.5V111.5L428.553 111.204L421.803 110.909V132.5ZM211.756 123.524C212.875 124.643 213.303 127.13 213.303 132.508C213.303 141.89 211.319 144.5 204.189 144.5C200.434 144.5 199.204 144.005 197.216 141.694C193.952 137.899 193.729 127.635 196.825 123.699C199.886 119.807 207.944 119.713 211.756 123.524ZM468.019 122.155C471.6 123.989 472.669 135.646 469.755 141.09C468.115 144.154 461.877 145.476 457.564 143.673C454.566 142.421 453.717 141.393 452.767 137.868C451.59 133.495 452.08 127.22 453.858 123.897C455.668 120.515 463.043 119.607 468.019 122.155ZM127.858 122.03C128.917 122.596 130.474 124.396 131.318 126.03L132.854 129H122.303H111.752L113.277 126.05C114.116 124.427 115.59 122.641 116.553 122.08C118.838 120.749 125.411 120.72 127.858 122.03ZM338.045 122.976C339.427 124.063 340.795 125.863 341.086 126.976C341.592 128.907 341.163 129 331.709 129C320.709 129 319.564 128.148 324.258 123.455C327.424 120.288 334.323 120.048 338.045 122.976ZM857.803 134.338C841.704 138.162 833.542 146.681 833.616 159.582C833.696 173.425 840.959 179.216 865.573 185.064C880.45 188.599 884.612 190.393 885.422 193.619C887.137 200.453 882.238 204 871.083 204C862.553 204 856.095 202.15 848.357 197.491L842.411 193.91L835.857 200.508L829.303 207.105L831.803 209.204C835.78 212.544 848.38 218.014 855.64 219.553C863.665 221.254 876.745 221.41 884.004 219.891C895.513 217.483 905.968 209.404 907.506 201.729C908.033 199.102 909.803 196.844 909.803 198.8C909.803 200.437 918.03 209.118 921.891 211.555C927.927 215.366 937.074 218 944.271 218H950.803V210V202H946.119C940.064 202 933.447 198.778 930.841 194.561C929.72 192.748 928.803 190.755 928.803 190.132C928.803 189.318 936.243 189 955.303 189H981.803V203V217H993.303H1004.8V195.968C1004.8 173.031 1005.35 170.075 1010.32 166.168C1012.38 164.547 1014.45 164 1018.51 164C1023.14 164 1024.38 164.42 1026.75 166.797C1030.77 170.818 1031.8 177.281 1031.8 198.549V217H1042.8H1053.8V210.35V203.7L1056.73 207.741C1064.82 218.907 1087.12 221.379 1100.13 212.552L1103.8 210.06V213.53V217H1114.8H1125.8L1125.82 203.25L1125.84 189.5L1128.87 195C1136.86 209.527 1152.54 218.814 1172.05 220.576L1179.8 221.276V212.766V204.256L1175.55 203.6C1159.12 201.062 1150.36 192.294 1150.49 178.499C1150.61 165.519 1160.33 155.488 1173.98 154.25L1179.8 153.722V145.361V137H1173.96C1166.52 137 1154.13 140.157 1147.54 143.728C1139.74 147.963 1132.31 155.304 1128.87 162.172C1125.88 168.161 1125.83 168.204 1124.82 165.554C1124.26 164.078 1123.8 162.538 1123.8 162.132C1123.8 161.726 1122.42 159.52 1120.74 157.228C1118.66 154.407 1115.6 152.04 1111.23 149.892C1105.77 147.204 1103.35 146.645 1095.3 146.224L1085.8 145.727V154.235V162.742L1090.96 163.426C1096.18 164.119 1101.15 166.129 1102.32 168.025C1102.67 168.597 1103.31 170.288 1103.74 171.783L1104.52 174.5H1088.41C1073.61 174.5 1071.88 174.692 1067.06 176.87C1062.05 179.135 1054.98 185.62 1054.65 188.253C1054.56 188.939 1054.2 184.961 1053.84 179.413C1053.32 171.284 1052.66 168.233 1050.44 163.689C1047.12 156.899 1041.41 151.779 1033.88 148.832C1026.76 146.044 1009.76 145.751 1003.04 148.301C992.953 152.132 986.304 159.201 983.336 169.253L982.102 173.435L980.858 169.467C979.068 163.755 973.308 155.622 968.877 152.551C953.137 141.643 929.837 143.419 916.527 156.541C910.786 162.2 906.861 170.037 906.107 177.345L905.531 182.924L903.629 180.506C900.56 176.605 890.298 172.241 875.37 168.49C867.706 166.565 860.401 164.311 859.135 163.482C856.038 161.452 855.181 157.598 857.157 154.582C860.117 150.065 867.302 149.156 880.553 151.622L883.803 152.227V143.673C883.803 138.968 883.379 134.856 882.861 134.536C880.728 133.218 863.105 133.078 857.803 134.338ZM953.562 163.995C957.069 166.133 960.793 171.41 960.799 174.25C960.803 175.846 959.351 176 944.29 176H927.776L929.311 172.327C931.236 167.72 932.531 166.148 936.303 163.842C940.467 161.296 949.264 161.374 953.562 163.995ZM65.2649 184.064C61.7369 185.09 57.3159 189.496 56.5259 192.774C55.6979 196.209 57.6109 201.817 60.0969 203.238C61.3099 203.932 65.6779 205.625 69.8029 207C76.4699 209.222 77.3029 209.778 77.3029 212C77.3029 214.268 76.8679 214.528 72.6159 214.802C69.4139 215.009 66.6839 214.47 64.0039 213.103L60.0799 211.101L57.4209 213.877C54.8639 216.546 54.8319 216.716 56.5819 218.3C59.3649 220.818 66.5029 223 71.9609 223C78.4839 223 83.3039 220.849 85.8289 216.81C90.0259 210.098 85.7719 202.356 76.5919 199.995C68.9709 198.035 67.4639 197.409 66.4319 195.774C65.7089 194.627 65.8219 193.683 66.8279 192.47C67.9349 191.136 69.2609 190.894 73.0199 191.339L77.8029 191.906V188.078C77.8029 184.591 77.5249 184.194 74.6779 183.625C70.8289 182.855 69.1519 182.933 65.2649 184.064ZM198.803 202.441C198.803 214.323 199.192 222.122 199.803 222.5C200.457 222.904 200.803 216.177 200.803 203.059C200.803 190.353 200.436 183 199.803 183C199.171 183 198.803 190.147 198.803 202.441ZM236.745 183.948C232.188 185.331 229.854 187 228.313 189.98C226.291 193.89 226.416 196.853 228.765 200.705C230.419 203.419 232.038 204.313 239.323 206.534C244.055 207.978 248.174 209.804 248.477 210.592C250.168 214.998 241.148 216.541 234.507 212.981L230.74 210.962L228.303 213.731C226.963 215.254 225.852 216.755 225.835 217.066C225.751 218.554 234.432 222.209 239.223 222.704C246.678 223.473 251.132 222.429 254.731 219.067C257.332 216.637 257.803 215.465 257.803 211.413C257.803 204.812 255.416 202.556 245.101 199.41C237.747 197.167 236.803 196.609 236.803 194.507C236.803 191.579 239.442 190.594 244.845 191.507L248.803 192.176V188.213C248.803 184.574 248.547 184.199 245.678 183.625C241.891 182.868 240.092 182.933 236.745 183.948ZM1103.68 187.906C1105.85 189.278 1104.19 195.459 1100.72 198.925C1092.59 207.056 1074.8 204.684 1074.8 195.469C1074.8 189.964 1081.27 187.101 1093.8 187.059C1098.48 187.043 1102.92 187.424 1103.68 187.906ZM100.544 193.406C95.4949 195.239 93.8199 196.766 91.6659 201.5C89.3049 206.692 89.3459 209.424 91.8629 214.624C94.5289 220.131 100.492 223.254 107.487 222.807C112.115 222.512 112.315 222.373 112.616 219.25C112.926 216.034 112.884 216 108.589 216C104.393 216 99.8029 213.881 99.8029 211.943C99.8029 211.409 104.577 211 110.803 211H121.803V207.46C121.803 202.791 118.692 196.902 115.148 194.863C110.929 192.436 104.879 191.833 100.544 193.406ZM131.134 193.937C126.667 195.965 124.803 198.421 124.803 202.279C124.803 205.73 127.648 207.845 134.932 209.811C140.043 211.19 141.303 211.923 141.303 213.515C141.303 216.657 135.258 216.651 127.553 213.501C124.812 212.381 125.077 219.541 127.832 221.015C134.389 224.525 146.901 222.551 150.222 217.483C154.076 211.601 150.667 206.179 141.425 203.492C138.353 202.599 135.594 201.471 135.293 200.985C134.55 199.782 138.611 197.712 140.381 198.392C141.442 198.799 141.803 198.056 141.803 195.469C141.803 192.217 141.599 192.001 138.553 192.022C136.766 192.034 133.427 192.896 131.134 193.937ZM165.923 193.153C158.164 195.384 154.801 199.785 154.807 207.7C154.814 216.644 160.016 221.65 170.416 222.724L175.803 223.28V219.64C175.803 216.399 175.522 216 173.237 216C161.486 216 160.53 201.217 172.16 199.33C175.513 198.785 175.803 198.47 175.803 195.369C175.803 192.216 175.594 192.006 172.553 192.09C170.766 192.14 167.782 192.618 165.923 193.153ZM271.487 193.426C264.637 195.91 260.803 201.224 260.803 208.233C260.803 215.985 268.202 222.951 276.471 222.984C282.412 223.007 283.803 222.231 283.803 218.893C283.803 216.102 283.633 216 278.977 216C275.141 216 273.677 215.495 271.835 213.534L269.518 211.068L280.911 210.784L292.303 210.5L292.093 206.042C291.627 196.147 281.343 189.851 271.487 193.426ZM307.012 192.941C299.407 194.842 296.803 199.819 296.803 212.45V222H301.803H306.803V212.934C306.803 202.34 307.704 200 311.781 200C316.431 200 317.803 203.014 317.803 213.223V222H322.303H326.803V211.95C326.803 200.639 325.552 196.956 320.891 194.546C317.136 192.604 311.137 191.91 307.012 192.941ZM342.553 192.696C340.181 193.073 339.803 193.598 339.803 196.514C339.803 199.878 339.83 199.897 344.937 200.198C348.837 200.427 350.406 201.005 351.462 202.603C352.834 204.679 352.756 204.705 345.403 204.603C337.127 204.489 333.128 206.388 331.393 211.259C328.516 219.333 340.376 226.078 349.283 221.434C351.206 220.431 352.388 220.256 352.616 220.94C352.811 221.523 354.957 222 357.386 222H361.803V211.95C361.803 200.722 360.544 196.942 356.036 194.635C352.829 192.994 346.45 192.076 342.553 192.696ZM376.381 193.461C370.397 195.63 366.681 199.903 366.071 205.319C365.788 207.828 365.83 210.973 366.165 212.308C367.62 218.103 377.221 223.649 384.384 222.833C386.862 222.55 387.35 222.009 387.616 219.25C387.918 216.121 387.794 216 384.289 216C379.865 216 374.803 211.535 374.803 207.633C374.803 203.618 378.665 199.962 383.608 199.299C387.717 198.748 387.895 198.584 387.606 195.611C387.335 192.832 386.929 192.475 383.803 192.27C381.878 192.144 378.538 192.68 376.381 193.461ZM111.553 201.746C113.705 204.563 112.991 205 106.23 205C100.544 205 99.7009 204.767 99.9889 203.275C100.774 199.197 108.796 198.136 111.553 201.746ZM282.053 201.773C285.038 204.395 284.047 205 276.768 205C269.978 205 269.771 204.928 270.833 202.944C272.96 198.97 278.234 198.42 282.053 201.773ZM352.29 210.979C353.293 212.602 350.91 215.935 348.274 216.597C344.191 217.621 340.803 216.284 340.803 213.648C340.803 212.375 341.103 211.033 341.47 210.667C342.513 209.623 351.615 209.886 352.29 210.979ZM506.828 250.464C505.164 252.882 503.803 255.117 503.803 255.43C503.803 255.744 505.29 256 507.107 256C509.549 256 511.267 255.116 513.694 252.613C517.06 249.14 516.98 248.778 512.472 247.064C510.066 246.15 509.605 246.427 506.828 250.464ZM161.803 251.445V255H166.866H171.93L171.616 251.75C171.316 248.634 171.108 248.487 166.553 248.195L161.803 247.89V251.445ZM573.187 249.442C571.832 252.973 573.213 254.493 578.062 254.805L582.803 255.11V251.555C582.803 248.005 582.797 248 578.272 248C575.248 248 573.556 248.48 573.187 249.442ZM58.8029 269V288H63.3029H67.8029V269V250H63.3029H58.8029V269ZM311.495 250.641C311.115 251.022 310.803 259.583 310.803 269.667V288H315.803H320.803V280.54V273.081L329.053 272.79L337.303 272.5L337.613 268.75L337.924 265H329.363H320.803V261.5V258H331.363H341.924L341.613 254.25L341.303 250.5L326.745 250.224C318.739 250.073 311.876 250.26 311.495 250.641ZM138.803 266.55C138.803 283.757 140.831 287.083 152.286 288.653L156.803 289.272V285.636C156.803 282.818 156.403 282 155.026 282C154.048 282 152.248 281.299 151.026 280.443C149.092 279.089 148.803 277.985 148.803 271.943V265H152.803C156.581 265 156.803 264.833 156.803 262C156.803 259.167 156.581 259 152.803 259C149.203 259 148.803 258.75 148.803 256.5C148.803 254.167 148.47 254 143.803 254H138.803V266.55ZM176.803 267.423C176.803 280.262 176.911 280.975 179.289 283.801C181.671 286.631 187.801 289 192.746 289C194.43 289 194.803 288.366 194.803 285.5C194.803 283.106 194.344 282 193.35 282C192.551 282 190.751 281.478 189.35 280.839C186.957 279.749 186.803 279.234 186.803 272.339V265H190.803C194.581 265 194.803 264.833 194.803 262C194.803 259.167 194.581 259 190.803 259C187.203 259 186.803 258.75 186.803 256.5C186.803 254.167 186.47 254 181.803 254H176.803V267.423ZM234.803 266.55C234.803 280.683 235.796 283.911 240.965 286.584C242.685 287.473 246.165 288.268 248.698 288.35C253.157 288.495 253.303 288.407 253.303 285.572C253.303 283.207 252.762 282.499 250.489 281.891C245.52 280.562 244.803 279.299 244.803 271.878V265H249.303C253.636 265 253.803 264.889 253.803 262C253.803 259.111 253.636 259 249.303 259C245.17 259 244.803 258.796 244.803 256.5C244.803 254.167 244.47 254 239.803 254H234.803V266.55ZM83.4459 259.028C76.3669 261.149 73.8029 266.452 73.8029 278.968V288H78.8029H83.8029V278.934C83.8029 268.484 84.7249 265.994 88.5879 266.015C93.7289 266.044 94.2749 267.121 94.6469 277.962L94.9899 288H100.013H105.036L104.613 278.25C104.098 266.35 102.457 262.654 96.4869 259.943C92.0279 257.919 88.0729 257.642 83.4459 259.028ZM116.116 259.102C109.901 260.901 106.623 268.717 110.582 272.3C111.561 273.186 115.024 274.604 118.279 275.452C124.926 277.183 126.339 278.162 125.467 280.433C124.709 282.408 119.726 282.425 114.303 280.471C112.103 279.679 110.191 279.023 110.053 279.015C109.915 279.007 109.803 280.559 109.803 282.465C109.803 286.575 111.606 287.834 118.694 288.673C124.863 289.404 130.042 287.693 133.27 283.857C138.046 278.181 135.396 272.232 127.091 269.987C119.839 268.027 118.439 267.144 119.861 265.43C120.514 264.644 122.118 264 123.425 264C125.401 264 125.803 263.492 125.803 261C125.803 258.264 125.517 258.008 122.553 258.09C120.766 258.14 117.869 258.595 116.116 259.102ZM198.967 269.422C199.278 279.979 199.492 281.05 201.803 283.551C208.977 291.318 221.861 290.593 227.533 282.102C229.528 279.116 229.803 277.45 229.803 268.352V258H224.803H219.803V267.566C219.803 279.031 218.997 281 214.303 281C209.609 281 208.803 279.031 208.803 267.566V258H203.717H198.631L198.967 269.422ZM264.077 260.093C252.697 265.726 252.744 281.404 264.156 286.929C269.413 289.474 273.07 289.516 278.402 287.095C284.219 284.453 287.303 279.743 287.303 273.5C287.303 267.257 284.219 262.547 278.402 259.905C273.055 257.477 269.262 257.527 264.077 260.093ZM351.487 259.404C346.644 261.188 343.888 263.646 342.165 267.718C340.273 272.189 340.46 275.661 342.863 280.624C345.231 285.516 351.127 289 357.037 289C362.526 289 363.803 288.173 363.803 284.617C363.803 281.52 363.71 281.456 359.79 281.83C355.821 282.208 350.803 280.076 350.803 278.011C350.803 277.492 355.64 276.94 361.553 276.784L372.303 276.5L372.623 273.711C373.064 269.87 369.442 262.809 365.983 260.765C361.849 258.323 355.928 257.767 351.487 259.404ZM386.303 259.326C378.438 262.404 375.636 266.16 375.636 273.626C375.636 282.111 381.757 287.809 391.918 288.785L396.803 289.254V285.627C396.803 282.285 396.573 282 393.88 282C389.48 282 384.803 277.62 384.803 273.5C384.803 269.38 389.48 265 393.88 265C396.554 265 396.803 264.702 396.803 261.5C396.803 258.109 396.687 258.002 393.053 258.076C390.991 258.118 387.953 258.68 386.303 259.326ZM408.077 260.093C396.697 265.726 396.744 281.404 408.156 286.929C413.413 289.474 417.07 289.516 422.402 287.095C434.415 281.639 434.415 265.361 422.402 259.905C417.055 257.477 413.262 257.527 408.077 260.093ZM443.823 259.752C441.909 260.713 439.321 263.029 438.073 264.898C436.097 267.856 435.803 269.57 435.803 278.148V288H440.803H445.803V278.934C445.803 268.34 446.704 266 450.781 266C455.431 266 456.803 269.014 456.803 279.223V288H461.803H466.803V278.2C466.803 267.542 467.453 266 471.946 266C476.413 266 477.803 269.138 477.803 279.223V288H482.303H486.803V277.95C486.803 265.825 485.527 262.686 479.487 259.943C474.479 257.67 469.938 257.499 465.359 259.412C462.481 260.615 461.408 260.621 458.141 259.456C452.867 257.576 447.952 257.677 443.823 259.752ZM502.278 259.009C500.614 259.522 497.727 261.515 495.863 263.438C493.068 266.322 492.395 267.878 492.028 272.304C491.275 281.382 496.106 287.394 505.147 288.634C512.27 289.61 514.803 288.586 514.804 284.731V281.5L509.894 281.84C505.811 282.123 504.589 281.786 502.643 279.84L500.303 277.5L511.458 277.218C523.809 276.906 524.197 276.68 522.825 270.599C521.822 266.153 519.538 262.528 516.474 260.52C513.53 258.591 506.178 257.809 502.278 259.009ZM534.27 259.973C528.045 263.093 526.803 266.076 526.803 277.904V288H531.803H536.803V278.122C536.803 267.462 537.215 266.519 542.489 265.109C544.762 264.501 545.303 263.793 545.303 261.428C545.303 258.801 544.944 258.472 541.803 258.226C539.783 258.067 536.598 258.806 534.27 259.973ZM557.381 259.461C555.224 260.243 552.074 262.268 550.381 263.961C547.57 266.772 547.303 267.606 547.303 273.596C547.303 279.871 547.461 280.299 550.973 283.517C554.833 287.054 561.132 289.329 565.629 288.809C567.808 288.557 568.359 287.924 568.606 285.389C568.895 282.416 568.717 282.252 564.608 281.701C559.725 281.046 555.803 277.393 555.803 273.5C555.803 269.607 559.725 265.954 564.608 265.299C568.717 264.748 568.895 264.584 568.606 261.611C568.335 258.832 567.929 258.475 564.803 258.27C562.878 258.144 559.538 258.68 557.381 259.461ZM597.303 259.417C595.653 260.154 592.953 262.191 591.303 263.944C588.604 266.812 588.303 267.783 588.303 273.637C588.303 279.976 588.409 280.243 592.444 284.006C594.97 286.363 598.029 288.139 600.29 288.564C607.955 290.002 616.83 284.978 618.914 278.023C621.199 270.398 617.852 263.289 610.382 259.896C605.582 257.716 601.452 257.565 597.303 259.417ZM161.803 273.5V288H166.803H171.803V273.5V259H166.803H161.803V273.5ZM573.47 259.667C573.103 260.033 572.803 266.558 572.803 274.167V288H577.803H582.803V273.5V259H578.47C576.086 259 573.836 259.3 573.47 259.667ZM275.58 266.557C277.409 267.838 277.803 269.067 277.803 273.5C277.803 277.933 277.409 279.162 275.58 280.443C270.138 284.255 264.803 280.818 264.803 273.5C264.803 266.182 270.138 262.745 275.58 266.557ZM362.553 267.746C364.721 270.584 363.982 271 356.768 271C349.978 271 349.771 270.928 350.833 268.944C352.996 264.903 359.847 264.203 362.553 267.746ZM419.58 266.557C421.409 267.838 421.803 269.067 421.803 273.5C421.803 277.933 421.409 279.162 419.58 280.443C414.138 284.255 408.803 280.818 408.803 273.5C408.803 266.182 414.138 262.745 419.58 266.557ZM512.598 267.75L515.303 270.5L508.435 270.798C504.657 270.962 501.282 270.812 500.935 270.463C499.955 269.481 505.671 265 507.904 265C508.999 265 511.111 266.238 512.598 267.75ZM607.776 266.777C609.499 268.172 609.97 269.614 609.97 273.5C609.97 278.933 607.593 282 603.383 282C598.999 282 597.303 279.629 597.303 273.5C597.303 269.05 597.718 267.535 599.244 266.419C601.872 264.497 605.129 264.634 607.776 266.777Z" fill="#3ED948"/>
</svg>
